<svg width="87" height="24" viewBox="0 0 87 24" fill="none" xmlns="http://www.w3.org/2000/svg">
<path d="M50.5359 8.39082C50.5359 7.65133 50.1719 7.23681 49.5635 7.23681C48.9563 7.23681 48.5608 7.65133 48.5608 8.27311V8.47398C48.5608 8.67356 48.3939 8.83604 48.1889 8.83604H44.9442V8.51108C44.9442 5.76041 46.5856 4.25073 49.5937 4.25073C52.5716 4.25073 54.3036 5.70027 54.3036 8.24497V19.8042C54.3036 20.0038 54.1381 20.1663 53.9317 20.1663H50.9065C50.7015 20.1663 50.5346 20.0038 50.5346 19.8042C50.5346 19.4933 50.1562 19.3257 49.9196 19.533C49.2139 20.1484 48.428 20.4618 47.5883 20.4618C46.3122 20.4618 44.6406 19.9002 44.6406 16.8527C44.6406 16.2603 44.6406 15.7882 44.6406 14.2785C44.6406 11.4677 46.4029 10.2255 48.8039 10.2255H50.164C50.369 10.2255 50.5359 10.063 50.5359 9.86339V8.39082ZM50.005 12.7394C49.9945 12.7394 49.9827 12.7394 49.9722 12.7394C48.7697 12.829 48.3781 13.1041 48.3781 15.4006C48.3781 16.909 48.6514 17.3529 49.4715 17.3235C50.3231 17.2941 50.6266 17.0279 50.6266 14.1289L50.5806 13.0849C50.5714 12.8917 50.4085 12.7382 50.2087 12.7382H50.0037L50.005 12.7394Z" fill="#090909"/>
<path d="M83.2322 9.14307C83.2322 8.40359 82.8682 7.98907 82.2598 7.98907C81.6513 7.98907 81.2571 8.40359 81.2571 9.02537V9.22623C81.2571 9.42582 81.0902 9.5883 80.8851 9.5883H77.6405V9.26206C77.6405 6.51138 79.2819 5.00171 82.29 5.00171C85.2679 5.00171 86.9999 6.45125 86.9999 8.99594V20.5565C86.9999 20.756 86.833 20.9185 86.628 20.9185H83.6028C83.3978 20.9185 83.2309 20.756 83.2309 20.5565C83.2309 20.2456 82.8524 20.078 82.6159 20.2852C81.9102 20.9006 81.1243 21.2141 80.2846 21.2141C79.0085 21.2141 77.3369 20.6524 77.3369 17.6049C77.3369 17.0126 77.3369 16.5405 77.3369 15.0308C77.3369 12.22 79.0992 10.9777 81.5002 10.9777H82.8603C83.0653 10.9777 83.2322 10.8152 83.2322 10.6156V9.14307ZM82.7013 13.4917C82.6908 13.4917 82.679 13.4917 82.6685 13.4917C81.466 13.5813 81.0744 13.8563 81.0744 16.1528C81.0744 17.6625 81.3477 18.1052 82.1691 18.0757C83.0193 18.0463 83.3242 17.7802 83.3229 14.8811L83.2769 13.8371C83.269 13.6439 83.1048 13.4904 82.905 13.4904H82.7L82.7013 13.4917Z" fill="#090909"/>
<path d="M22.8348 9.01905C22.8348 8.27957 22.4708 7.86505 21.8623 7.86505C21.2552 7.86505 20.8596 8.27957 20.8596 8.90135V9.10221C20.8596 9.3018 20.6927 9.46428 20.4877 9.46428H17.243V9.13803C17.243 6.38736 18.8844 4.87769 21.8925 4.87769C24.8704 4.87769 26.6025 6.32723 26.6025 8.87192V20.4324C26.6025 20.632 26.4356 20.7945 26.2306 20.7945H23.2067C23.0017 20.7945 22.8348 20.632 22.8348 20.4324C22.8348 20.1215 22.4563 19.9539 22.2197 20.1612C21.514 20.7766 20.7282 21.09 19.8871 21.09C18.6111 21.09 16.9395 20.5284 16.9395 17.4809C16.9395 16.8898 16.9395 16.4164 16.9395 14.9068C16.9395 12.096 18.7017 10.8537 21.1027 10.8537H22.4629C22.6679 10.8537 22.8348 10.6912 22.8348 10.4916V9.01905ZM22.3039 13.3677C22.2933 13.3677 22.2815 13.3677 22.271 13.3677C21.0685 13.4572 20.6769 13.7323 20.6769 16.0288C20.6769 17.5372 20.9503 17.9811 21.7716 17.9517C22.6219 17.9223 22.9268 17.6562 22.9268 14.7571L22.8808 13.7131C22.8729 13.5199 22.7086 13.3664 22.5089 13.3664H22.3039V13.3677Z" fill="#090909"/>
<path d="M31.6531 7.80235C31.6531 8.1222 32.0408 8.30003 32.2879 8.08893C33.0369 7.44924 33.8583 7.13067 34.7519 7.13067C35.8926 7.13067 36.7678 7.58358 37.283 8.4139C37.4144 8.62499 37.714 8.65186 37.8901 8.47403C38.7943 7.56438 39.6919 7.12939 40.7077 7.12939C42.5922 7.12939 43.6554 8.34225 43.6554 10.4724V22.6394C43.6554 22.8466 43.4832 23.0155 43.269 23.0155H40.2425C40.0296 23.0155 39.8561 22.8466 39.8561 22.6394V11.7147C39.8561 10.6208 39.4908 10.0873 38.793 10.0873C38.0334 10.0873 37.6076 10.768 37.6076 12.0691V22.6394C37.6076 22.8466 37.4354 23.0155 37.2212 23.0155H34.1645C33.9516 23.0155 33.7781 22.8466 33.7781 22.6394V11.7147V11.4486C33.7781 10.5018 33.4746 10.0873 32.8359 10.0873C32.1065 10.0873 31.6505 10.7974 31.6505 11.8925V22.6394C31.6505 22.8466 31.4784 23.0155 31.2641 23.0155H28.2692C28.0563 23.0155 27.8828 22.8466 27.8828 22.6394V7.80235C27.8828 7.59509 28.055 7.42621 28.2692 7.42621H31.2641C31.477 7.42621 31.6505 7.59509 31.6505 7.80235H31.6531Z" fill="#090909"/>
<path d="M59.3738 7.03868C59.3738 7.35852 59.7615 7.53636 60.0086 7.32526C60.7577 6.68557 61.579 6.367 62.4726 6.367C63.6133 6.367 64.4886 6.8199 65.0037 7.65022C65.1351 7.86132 65.4347 7.88819 65.6108 7.71036C66.515 6.80071 67.4126 6.36572 68.4284 6.36572C70.3129 6.36572 71.3761 7.57858 71.3761 9.70875V21.8757C71.3761 22.083 71.2039 22.2518 70.9897 22.2518H67.9632C67.7503 22.2518 67.5768 22.083 67.5768 21.8757V10.9523C67.5768 9.85844 67.2115 9.32494 66.5137 9.32494C65.7541 9.32494 65.3283 10.0056 65.3283 11.3067V21.877C65.3283 22.0842 65.1561 22.2531 64.9419 22.2531H61.8852C61.6723 22.2531 61.4988 22.0842 61.4988 21.877V10.9523V10.6862C61.4988 9.73946 61.1953 9.32494 60.5566 9.32494C59.8272 9.32494 59.3712 10.035 59.3712 11.1301V21.877C59.3712 22.0842 59.1991 22.2531 58.9848 22.2531H55.9899C55.777 22.2531 55.6035 22.0842 55.6035 21.877V7.03868C55.6035 6.83142 55.7757 6.66254 55.9899 6.66254H58.9848C59.1977 6.66254 59.3712 6.83142 59.3712 7.03868H59.3738Z" fill="#090909"/>
<path d="M0.386363 1.25714H4.8913C5.07003 1.25714 5.22641 1.3774 5.26715 1.54628L7.52751 10.8423C7.62081 11.2274 8.18459 11.2287 8.27921 10.8423L10.5645 1.545C10.6066 1.37612 10.7617 1.25586 10.9404 1.25586H15.4151C15.628 1.25586 15.8015 1.42474 15.8015 1.632V21.8258C15.8015 22.0331 15.6293 22.2019 15.4151 22.2019H12.3886C12.1757 22.2019 12.0022 22.0331 12.0022 21.8258V13.6684C12.0022 13.2219 11.3438 13.1477 11.24 13.5827L9.24643 21.9102C9.20569 22.0804 9.0493 22.2007 8.87058 22.2007H6.8678C6.68907 22.2007 6.534 22.0817 6.49195 21.9128L4.37747 13.4471C4.2697 13.0147 3.61525 13.0914 3.61525 13.5354V21.8245C3.61525 22.0318 3.44178 22.2007 3.22889 22.2007H0.386363C0.173469 22.2007 0 22.0318 0 21.8245V1.63328C0 1.42602 0.173469 1.25714 0.386363 1.25714Z" fill="#090909"/>
<path d="M75.4304 21.2642H73.6195C73.0702 21.2642 72.626 20.8304 72.626 20.2969V6.6408C72.626 6.10602 73.0702 5.67358 73.6195 5.67358H75.4304C75.9797 5.67358 76.4239 6.1073 76.4239 6.6408V20.2957C76.4239 20.8304 75.9797 21.2629 75.4304 21.2629V21.2642Z" fill="#090909"/>
<path d="M72.5261 3.07628C72.2541 1.67919 73.4894 0.477851 74.9231 0.742683C75.7248 0.891092 76.37 1.51927 76.5225 2.29969C76.7945 3.6955 75.5605 4.89812 74.1255 4.63329C73.3238 4.48488 72.6773 3.8567 72.5261 3.07628Z" fill="#090909"/>
</svg>
